<svg id="Layer_1" data-name="Layer 1" xmlns="http://www.w3.org/2000/svg" viewBox="0 0 68.03 96.34"><title>logo_k_login</title><path d="M18.25,95.5H51.79c9.52,0,17.24,7.11,17.24,15.89V115c0,8.77-7.72,15.88-17.24,15.88H18.25C8.73,130.84,1,123.73,1,115v-3.57C1,102.61,8.73,95.5,18.25,95.5Z" transform="translate(-1.01 -34.5)" fill="#fff"/><path d="M14.58,35H39.2c7,0,12.66,7.15,12.66,16v3.59c0,8.83-5.67,16-12.66,16H14.58c-7,0-12.65-7.15-12.65-16V51C1.93,42.15,7.59,35,14.58,35Z" transform="translate(-1.01 -34.5)" fill="none" stroke="#a35448" stroke-miterlimit="10"/><text transform="translate(10.03 29.8) scale(0.95 1)" font-size="4.07" fill="#a35448" font-family="Arial-BoldMT, Arial" font-weight="700">KEBO GROU<tspan x="25.1" y="0" letter-spacing="-0.02em">P</tspan></text><text transform="translate(37.05 29.79) scale(1.23 1)" font-size="2.31" fill="#a35448" font-family="Arial-BoldMT, Arial" font-weight="700">Ltd</text><text transform="matrix(-1.57, 0, 0, 1, 28.8, 25.15)" font-size="23.39" fill="#a35448" font-family="AgencyFB-Reg, Agency FB">K</text><text transform="translate(21.84 25.15) scale(1.57 1)" font-size="23.39" font-family="AgencyFB-Reg, Agency FB">G</text></svg>